<?xml version="1.0"?>
<svg width="800" height="480" xmlns="http://www.w3.org/2000/svg" xmlns:svg="http://www.w3.org/2000/svg">
 <!-- Created with SVG-edit - https://github.com/SVG-Edit/svgedit-->

 <g class="layer">
  <title>Layer 1</title>
  <line fill="none" fill-opacity="null" id="svg_93" stroke="#000000" stroke-dasharray="null" stroke-linecap="null" stroke-linejoin="null" stroke-opacity="null" stroke-width="5" x1="390" x2="318" y1="304" y2="379"/>
  <line fill="none" fill-opacity="null" id="svg_94" stroke="#000000" stroke-dasharray="null" stroke-linecap="null" stroke-linejoin="null" stroke-opacity="null" stroke-width="5" x1="390" x2="531" y1="305" y2="337"/>
  <line fill="none" fill-opacity="null" id="svg_84" stroke="#ff0000" stroke-dasharray="null" stroke-linecap="null" stroke-linejoin="null" stroke-width="5" transform="matrix(1, 0, 0, 1, 70, 37)" x1="319" x2="319" y1="115.68" y2="267.32"/>
  <line fill="none" fill-opacity="null" id="svg_74" stroke="#000000" stroke-dasharray="null" stroke-linecap="null" stroke-linejoin="null" stroke-opacity="null" stroke-width="5" x1="331.5" x2="600.5" y1="60.5" y2="120.5"/>
  <line fill="none" fill-opacity="null" id="svg_76" stroke="#000000" stroke-dasharray="null" stroke-linecap="null" stroke-linejoin="null" stroke-opacity="null" stroke-width="5" x1="332.88" x2="192.12" y1="59.84" y2="198.16"/>
  <line fill="none" fill-opacity="null" id="svg_77" stroke="#000000" stroke-dasharray="null" stroke-linecap="null" stroke-linejoin="null" stroke-opacity="null" stroke-width="5" x1="599.38" x2="458.62" y1="121.35" y2="259.66"/>
  <line fill="none" fill-opacity="null" id="svg_80" stroke="#000000" stroke-dasharray="null" stroke-linecap="null" stroke-linejoin="null" stroke-opacity="null" stroke-width="5" x1="189.31" x2="458.31" y1="346.99" y2="406.99"/>
  <line fill="none" fill-opacity="null" id="svg_79" stroke="#000000" stroke-dasharray="null" stroke-linecap="null" stroke-linejoin="null" stroke-opacity="null" stroke-width="5" transform="matrix(1, 0, 0, 1, -8, -3)" x1="606.69" x2="465.93" y1="273.34" y2="411.66"/>
  <line fill="none" fill-opacity="null" id="svg_81" stroke="#000000" stroke-dasharray="null" stroke-linecap="null" stroke-linejoin="null" stroke-opacity="null" stroke-width="5" transform="matrix(1, 0, 0, 1, 0, -4)" x1="192" x2="192" y1="202" y2="353.65"/>
  <polygon cx="375" cy="226" fill="none" id="svg_96" orient="point" point="5" points="388,237.52786254882812 388.876220703125,240.7939910888672 392.2532653808594,240.61802673339844 389.4177551269531,242.46066284179688 390.628662109375,245.61802673339844 388,243.49070739746094 385.371337890625,245.61802673339844 386.5822448730469,242.46066284179688 383.7467346191406,240.61802673339844 387.123779296875,240.7939910888672 388,237.52786254882812 388.876220703125,240.7939910888672" r="4.47" r2="1.49" radialshift="0" shape="star" starRadiusMultiplier="3" stroke="#0033ff" stroke-width="5" transform="matrix(1, 0, 0, 1, 1, -16)"/>
  <line fill="none" fill-opacity="null" id="svg_73" stroke="#000000" stroke-dasharray="null" stroke-linecap="null" stroke-linejoin="null" stroke-opacity="null" stroke-width="5" x1="190" x2="459" y1="198" y2="258"/>
  <line fill="none" fill-opacity="null" id="svg_82" stroke="#000000" stroke-dasharray="null" stroke-linecap="null" stroke-linejoin="null" stroke-opacity="null" stroke-width="5" transform="matrix(1, 0, 0, 1, 138, -46)" x1="459" x2="459" y1="167.68" y2="319.32"/>
  <line fill="none" fill-opacity="null" id="svg_83" stroke="#000000" stroke-dasharray="null" stroke-linecap="null" stroke-linejoin="null" stroke-opacity="null" stroke-width="5" transform="matrix(1, 0, 0, 1, 140, 48)" x1="321" x2="321" y1="209.67" y2="361.32"/>
  <line fill="none" fill-opacity="null" id="svg_85" stroke="#000000" stroke-dasharray="null" stroke-linecap="null" stroke-linejoin="null" stroke-opacity="null" stroke-width="5" x1="458.38" x2="317.62" y1="86.35" y2="224.66"/>
  <line fill="none" fill-opacity="null" id="svg_86" stroke="#000000" stroke-dasharray="null" stroke-linecap="null" stroke-linejoin="null" stroke-opacity="null" stroke-width="5" x1="264.5" x2="533.5" y1="125.5" y2="185.5"/>
  <line fill="none" fill-opacity="null" id="svg_89" stroke="#000000" stroke-dasharray="null" stroke-linecap="null" stroke-linejoin="null" stroke-opacity="null" stroke-width="5" transform="matrix(1, 0, 0, 1, -1, 113)" x1="319" x2="319" y1="115.68" y2="267.32"/>
  <line fill="none" fill-opacity="null" id="svg_90" stroke="#000000" stroke-dasharray="null" stroke-linecap="null" stroke-linejoin="null" stroke-opacity="null" stroke-width="5" transform="matrix(1, 0, 0, 1, 212, 70)" x1="319" x2="319" y1="115.68" y2="267.32"/>
  <line fill="none" fill-opacity="null" id="svg_95" opacity="0.5" stroke="#000000" stroke-dasharray="null" stroke-linecap="null" stroke-linejoin="null" stroke-opacity="null" stroke-width="5" x1="608" x2="608" y1="338" y2="338"/>
 </g>
</svg>