<?xml version="1.0"?>
<svg width="480" height="480" xmlns="http://www.w3.org/2000/svg" xmlns:svg="http://www.w3.org/2000/svg">
 <!-- Created with SVG-edit - https://github.com/SVG-Edit/svgedit-->
 <g class="layer">
  <title>Layer 1</title>
  <line fill="none" id="svg_14" stroke="#898989" stroke-dasharray="null" stroke-linecap="null" stroke-linejoin="null" stroke-width="5" transform="matrix(1, 0, 0, 1, -46, 4)" x1="250" x2="250" y1="79" y2="253.1"/>
  <line fill="none" id="svg_16" stroke="#898989" stroke-dasharray="null" stroke-linecap="null" stroke-linejoin="null" stroke-width="5" transform="matrix(1, 0, 0, 1, -46, 4)" x1="437" x2="248" y1="292" y2="253"/>
  <line fill="none" id="svg_1" stroke="#000000" stroke-width="5" transform="matrix(1, 0, 0, 1, -46, 4)" x1="135" x2="135" y1="155" y2="350"/>
  <line fill="none" id="svg_4" stroke="#000000" stroke-width="5" transform="matrix(1, 0, 0, 1, 72, 39)" x1="205" x2="205" y1="155" y2="350"/>
  <line fill="none" id="svg_5" stroke="#000000" stroke-width="5" transform="matrix(1, 0, 0, 1, -46, 4)" x1="326.02" x2="133.98" y1="191.43" y2="157.57"/>
  <line fill="none" id="svg_6" stroke="#000000" stroke-width="5" transform="matrix(1, 0, 0, 1, -144, 252)" x1="423.02" x2="230.98" y1="135.43" y2="101.57"/>
  <line fill="none" id="svg_7" stroke="#000000" stroke-width="5" transform="matrix(1, 0, 0, 1, -30, 5)" x1="230.98" x2="423.02" y1="76.57" y2="110.43"/>
  <line fill="none" fill-opacity="null" id="svg_10" stroke="#000000" stroke-dasharray="null" stroke-linecap="null" stroke-linejoin="null" stroke-opacity="null" stroke-width="5" transform="matrix(1, 0, 0, 1, -46, 4)" x1="134" x2="250" y1="159" y2="78"/>
  <line fill="none" fill-opacity="null" id="svg_11" stroke="#000000" stroke-dasharray="null" stroke-linecap="null" stroke-linejoin="null" stroke-opacity="null" stroke-width="5" transform="matrix(1, 0, 0, 1, -46, 4)" x1="325" x2="437" y1="193" y2="112"/>
  <line fill="none" fill-opacity="null" id="svg_12" stroke="#000000" stroke-dasharray="null" stroke-linecap="null" stroke-linejoin="null" stroke-opacity="null" stroke-width="5" transform="matrix(1, 0, 0, 1, -46, 4)" x1="439" x2="439" y1="112" y2="292"/>
  <line fill="none" fill-opacity="null" id="svg_13" stroke="#000000" stroke-dasharray="null" stroke-linecap="null" stroke-linejoin="null" stroke-opacity="null" stroke-width="5" transform="matrix(1, 0, 0, 1, -46, 4)" x1="326" x2="440" y1="385" y2="289"/>
  <line fill="none" id="svg_17" stroke="#000000" stroke-dasharray="null" stroke-linecap="null" stroke-linejoin="null" stroke-width="5" transform="matrix(1, 0, 0, 1, -46, 4)" x1="251" x2="136" y1="256" y2="351"/>
  <text fill="#000000" font-family="Serif" font-size="24" id="svg_18" stroke="#000000" stroke-dasharray="null" stroke-linecap="null" stroke-linejoin="null" stroke-width="0" text-anchor="middle" transform="matrix(0.79536, 0.123433, -0.123433, 0.79536, 53.4212, 57.2914)" x="209" xml:space="preserve" y="388">(1,0,0)</text>
  <text fill="#000000" font-family="Serif" font-size="24" id="svg_19" stroke="#000000" stroke-dasharray="null" stroke-linecap="null" stroke-linejoin="null" stroke-width="0" text-anchor="middle" transform="matrix(0.656629, -0.459209, 0.459209, 0.656629, -175.38, 137.483)" x="224" xml:space="preserve" y="391">(0,0,1)</text>
  <text fill="#000000" font-family="Serif" font-size="24" id="svg_20" stroke="#000000" stroke-dasharray="null" stroke-linecap="null" stroke-linejoin="null" stroke-width="0" text-anchor="middle" transform="matrix(0.646143, -0.492453, 0.492453, 0.646143, -64.599, 322.527)" x="398" xml:space="preserve" y="346">(2,0,1)</text>
  <text fill="#000000" font-family="Serif" font-size="24" id="svg_21" stroke="#000000" stroke-dasharray="null" stroke-linecap="null" stroke-linejoin="null" stroke-width="0" text-anchor="middle" transform="matrix(0.822578, 0.195886, -0.195886, 0.822578, 80.332, -7.01676)" x="338" xml:space="preserve" y="258">(1,0,2)</text>
  <text fill="#000000" font-family="Serif" font-size="24" id="svg_22" stroke="#000000" stroke-dasharray="null" stroke-linecap="null" stroke-linejoin="null" stroke-width="0" text-anchor="middle" transform="matrix(0.797297, 0, 0, 0.797297, -23.6216, 120.473)" x="103" xml:space="preserve" y="240">(0,1,0)</text>
  <text fill="#000000" font-family="Serif" font-size="24" id="svg_23" stroke="#000000" stroke-dasharray="null" stroke-linecap="null" stroke-linejoin="null" stroke-width="0" text-anchor="middle" transform="matrix(0.756757, 0, 0, 0.756757, 16.4865, 127.297)" x="298" xml:space="preserve" y="280">(2,1,0)</text>
  <text fill="#000000" font-family="Serif" font-size="24" id="svg_24" stroke="#000000" stroke-dasharray="null" stroke-linecap="null" stroke-linejoin="null" stroke-width="0" text-anchor="middle" transform="matrix(0.783784, 0, 0, 0.783784, -158.108, 46.8649)" x="425" xml:space="preserve" y="217">(0,1,2)</text>
  <text fill="#000000" font-family="Serif" font-size="24" id="svg_25" stroke="#000000" stroke-dasharray="null" stroke-linecap="null" stroke-linejoin="null" stroke-width="0" text-anchor="middle" transform="matrix(0.797297, 0, 0, 0.797297, 230.743, 96.9459)" x="238" xml:space="preserve" y="193">(2,1,2)</text>
  <text fill="#000000" font-family="Serif" font-size="24" id="svg_26" stroke="#000000" stroke-dasharray="null" stroke-linecap="null" stroke-linejoin="null" stroke-width="0" text-anchor="middle" transform="matrix(0.857115, 0.151256, -0.151256, 0.857115, 113.82, 67.9258)" x="176" xml:space="preserve" y="103">(1,2,0)</text>
  <text fill="#000000" font-family="Serif" font-size="24" id="svg_27" stroke="#000000" stroke-dasharray="null" stroke-linecap="null" stroke-linejoin="null" stroke-width="0" text-anchor="middle" transform="matrix(0.794422, 0.203698, -0.203698, 0.794422, -128.07, -16.1322)" x="338" xml:space="preserve" y="72">(0,2,1)</text>
  <text fill="#000000" font-family="Serif" font-size="24" id="svg_28" stroke="#000000" stroke-dasharray="null" stroke-linecap="null" stroke-linejoin="null" stroke-width="0" text-anchor="middle" transform="matrix(0.775057, 0.227326, -0.227326, 0.775057, 90.4251, -8.75538)" x="367" xml:space="preserve" y="144">(2,2,1)</text>
  <text fill="#000000" fill-opacity="null" font-family="Serif" font-size="24" id="svg_30" stroke="#000000" stroke-dasharray="null" stroke-linecap="null" stroke-linejoin="null" stroke-opacity="null" stroke-width="0" text-anchor="middle" transform="matrix(0.852463, 0.178371, -0.178371, 0.852463, 301.14, -0.0989456)" x="34" xml:space="preserve" y="102">(1,2,2)</text>
 </g>
</svg>